<?xml version="1.0" standalone="no"?>
<!DOCTYPE svg PUBLIC "-//W3C//DTD SVG 20010904//EN"
 "http://www.w3.org/TR/2001/REC-SVG-20010904/DTD/svg10.dtd">
<svg version="1.0" xmlns="http://www.w3.org/2000/svg"
 width="50.000000pt" height="50.000000pt" viewBox="0 0 50.000000 50.000000"
 preserveAspectRatio="xMidYMid meet">

<g transform="translate(0.000000,50.000000) scale(0.100000,-0.100000)"
fill="#000000" stroke="none">
<path d="M155 456 c-60 -28 -87 -56 -114 -116 -36 -79 -19 -183 42 -249 33
-36 115 -71 167 -71 52 0 134 35 167 71 34 37 63 110 63 159 0 52 -35 134 -71
167 -37 34 -110 63 -159 63 -27 0 -65 -10 -95 -24z m155 -126 c0 -5 -20 -10
-45 -10 -43 0 -45 -1 -45 -30 0 -28 2 -30 40 -30 22 0 40 -4 40 -10 0 -5 -18
-10 -40 -10 -38 0 -40 -2 -40 -30 0 -29 2 -30 45 -30 25 0 45 -4 45 -10 0 -6
-27 -10 -60 -10 l-60 0 0 90 0 90 60 0 c33 0 60 -4 60 -10z"/>
</g>
</svg>
